<mxfile host="app.diagrams.net" agent="Mozilla/5.0 (Macintosh; Intel Mac OS X 10_15_7) AppleWebKit/537.36 (KHTML, like Gecko) Chrome/127.0.0.0 Safari/537.36" version="24.7.6">
  <diagram name="第 1 页" id="50eeZr3p8XBi8ec4Q3VI">
    <mxGraphModel dx="1306" dy="708" grid="0" gridSize="10" guides="1" tooltips="1" connect="1" arrows="1" fold="1" page="1" pageScale="1" pageWidth="827" pageHeight="1169" background="#000000" math="0" shadow="0">
      <root>
        <mxCell id="0" />
        <mxCell id="1" parent="0" />
        <mxCell id="QmDL1ngPozNIfJA5Vx8l-14" value="" style="childLayout=tableLayout;recursiveResize=0;shadow=0;fillColor=#e51400;fontColor=#FFFFFF;strokeColor=none;rounded=1;strokeWidth=3;" vertex="1" parent="1">
          <mxGeometry x="40" y="80" width="760" height="40" as="geometry" />
        </mxCell>
        <mxCell id="QmDL1ngPozNIfJA5Vx8l-15" value="" style="shape=tableRow;horizontal=0;startSize=0;swimlaneHead=0;swimlaneBody=0;top=0;left=0;bottom=0;right=0;dropTarget=0;collapsible=0;recursiveResize=0;expand=0;fontStyle=0;fillColor=none;strokeColor=inherit;" vertex="1" parent="QmDL1ngPozNIfJA5Vx8l-14">
          <mxGeometry width="760" height="40" as="geometry" />
        </mxCell>
        <mxCell id="QmDL1ngPozNIfJA5Vx8l-16" value="Protocol（协议）" style="connectable=0;recursiveResize=0;strokeColor=inherit;fillColor=none;align=center;whiteSpace=wrap;html=1;fontStyle=1;fontSize=20;fontColor=#ffffff;" vertex="1" parent="QmDL1ngPozNIfJA5Vx8l-15">
          <mxGeometry width="200" height="40" as="geometry">
            <mxRectangle width="200" height="40" as="alternateBounds" />
          </mxGeometry>
        </mxCell>
        <mxCell id="QmDL1ngPozNIfJA5Vx8l-17" value="Illustraction（图解）" style="connectable=0;recursiveResize=0;strokeColor=#b30000;fillColor=none;align=center;whiteSpace=wrap;html=1;fontStyle=1;fontSize=20;fontColor=#ffffff;strokeWidth=1;" vertex="1" parent="QmDL1ngPozNIfJA5Vx8l-15">
          <mxGeometry x="200" width="360" height="40" as="geometry">
            <mxRectangle width="360" height="40" as="alternateBounds" />
          </mxGeometry>
        </mxCell>
        <mxCell id="QmDL1ngPozNIfJA5Vx8l-18" value="Use&amp;nbsp;&lt;span style=&quot;background-color: initial; font-size: 20px;&quot;&gt;Cases（案例）&lt;/span&gt;" style="connectable=0;recursiveResize=0;strokeColor=inherit;fillColor=none;align=center;whiteSpace=wrap;html=1;fontStyle=1;fontSize=20;fontColor=#ffffff;" vertex="1" parent="QmDL1ngPozNIfJA5Vx8l-15">
          <mxGeometry x="560" width="200" height="40" as="geometry">
            <mxRectangle width="200" height="40" as="alternateBounds" />
          </mxGeometry>
        </mxCell>
        <mxCell id="QmDL1ngPozNIfJA5Vx8l-28" value="" style="childLayout=tableLayout;recursiveResize=0;shadow=0;fillColor=#fff2cc;strokeColor=none;strokeWidth=3;rounded=1;glass=0;" vertex="1" parent="1">
          <mxGeometry x="40" y="130" width="760" height="120" as="geometry" />
        </mxCell>
        <mxCell id="QmDL1ngPozNIfJA5Vx8l-29" value="" style="shape=tableRow;horizontal=0;startSize=0;swimlaneHead=0;swimlaneBody=0;top=0;left=0;bottom=0;right=0;dropTarget=0;collapsible=0;recursiveResize=0;expand=0;fontStyle=0;fillColor=none;strokeColor=inherit;" vertex="1" parent="QmDL1ngPozNIfJA5Vx8l-28">
          <mxGeometry width="760" height="120" as="geometry" />
        </mxCell>
        <mxCell id="QmDL1ngPozNIfJA5Vx8l-30" value="&lt;font style=&quot;font-size: 20px;&quot;&gt;&lt;b&gt;HTTPS&lt;/b&gt;&lt;/font&gt;&lt;div style=&quot;font-size: 14px;&quot;&gt;&lt;font style=&quot;font-size: 14px;&quot;&gt;&lt;b style=&quot;&quot;&gt;Hypertext Transfer Protocol Secure&lt;br&gt;&lt;/b&gt;&lt;/font&gt;&lt;/div&gt;&lt;div style=&quot;font-size: 14px;&quot;&gt;&lt;font style=&quot;font-size: 14px;&quot;&gt;&lt;b style=&quot;&quot;&gt;超文本&lt;span style=&quot;background-color: initial;&quot;&gt;传输&lt;/span&gt;&lt;span style=&quot;background-color: initial;&quot;&gt;安全协议&lt;/span&gt;&lt;/b&gt;&lt;/font&gt;&lt;/div&gt;" style="connectable=0;recursiveResize=0;strokeColor=inherit;fillColor=none;align=center;whiteSpace=wrap;html=1;" vertex="1" parent="QmDL1ngPozNIfJA5Vx8l-29">
          <mxGeometry width="200" height="120" as="geometry">
            <mxRectangle width="200" height="120" as="alternateBounds" />
          </mxGeometry>
        </mxCell>
        <mxCell id="QmDL1ngPozNIfJA5Vx8l-31" value="" style="connectable=0;recursiveResize=0;strokeColor=#d6b656;fillColor=none;align=center;whiteSpace=wrap;html=1;strokeWidth=1;" vertex="1" parent="QmDL1ngPozNIfJA5Vx8l-29">
          <mxGeometry x="200" width="360" height="120" as="geometry">
            <mxRectangle width="360" height="120" as="alternateBounds" />
          </mxGeometry>
        </mxCell>
        <mxCell id="QmDL1ngPozNIfJA5Vx8l-32" value="" style="connectable=0;recursiveResize=0;strokeColor=inherit;fillColor=none;align=center;whiteSpace=wrap;html=1;" vertex="1" parent="QmDL1ngPozNIfJA5Vx8l-29">
          <mxGeometry x="560" width="200" height="120" as="geometry">
            <mxRectangle width="200" height="120" as="alternateBounds" />
          </mxGeometry>
        </mxCell>
        <mxCell id="QmDL1ngPozNIfJA5Vx8l-35" value="" style="image;perimeter=ellipsePerimeter;html=1;align=center;shadow=0;dashed=0;spacingTop=3;image=img/lib/active_directory/generic_server.svg;" vertex="1" parent="1">
          <mxGeometry x="530" y="157.5" width="58.5" height="65" as="geometry" />
        </mxCell>
        <mxCell id="QmDL1ngPozNIfJA5Vx8l-37" style="edgeStyle=orthogonalEdgeStyle;rounded=0;orthogonalLoop=1;jettySize=auto;html=1;exitX=1;exitY=0.25;exitDx=0;exitDy=0;startArrow=classicThin;startFill=1;flowAnimation=1;strokeWidth=3;shadow=1;curved=0;strokeColor=#d6c157;endArrow=classicThin;endFill=1;" edge="1" parent="1">
          <mxGeometry relative="1" as="geometry">
            <mxPoint x="311.4480307306992" y="175.54591407961436" as="sourcePoint" />
            <mxPoint x="539.0725287699518" y="175.5" as="targetPoint" />
            <Array as="points">
              <mxPoint x="476" y="176" />
              <mxPoint x="476" y="176" />
            </Array>
          </mxGeometry>
        </mxCell>
        <mxCell id="QmDL1ngPozNIfJA5Vx8l-36" value="" style="image;aspect=fixed;perimeter=ellipsePerimeter;html=1;align=center;shadow=0;dashed=0;spacingTop=3;image=img/lib/active_directory/laptop_client.svg;" vertex="1" parent="1">
          <mxGeometry x="250" y="157.5" width="58.5" height="65" as="geometry" />
        </mxCell>
        <mxCell id="QmDL1ngPozNIfJA5Vx8l-39" style="edgeStyle=orthogonalEdgeStyle;rounded=0;orthogonalLoop=1;jettySize=auto;html=1;exitX=1;exitY=0.25;exitDx=0;exitDy=0;startArrow=none;startFill=0;flowAnimation=1;strokeWidth=3;shadow=1;curved=0;strokeColor=#d6c157;endArrow=classicThin;endFill=1;" edge="1" parent="1">
          <mxGeometry relative="1" as="geometry">
            <mxPoint x="532.6225287699517" y="230" as="sourcePoint" />
            <mxPoint x="304.9980307306992" y="230.04591407961436" as="targetPoint" />
            <Array as="points">
              <mxPoint x="469.55" y="230.5" />
              <mxPoint x="469.55" y="230.5" />
            </Array>
          </mxGeometry>
        </mxCell>
        <mxCell id="QmDL1ngPozNIfJA5Vx8l-40" value="&lt;font style=&quot;font-size: 15px;&quot;&gt;客户端&lt;/font&gt;" style="text;strokeColor=none;fillColor=none;html=1;fontSize=15;fontStyle=1;verticalAlign=middle;align=center;" vertex="1" parent="1">
          <mxGeometry x="238.5" y="222.5" width="70" height="20" as="geometry" />
        </mxCell>
        <mxCell id="QmDL1ngPozNIfJA5Vx8l-41" value="&lt;span style=&quot;font-size: 14px;&quot;&gt;服务&lt;/span&gt;" style="text;strokeColor=none;fillColor=none;html=1;fontSize=14;fontStyle=1;verticalAlign=middle;align=center;" vertex="1" parent="1">
          <mxGeometry x="524.25" y="222.5" width="70" height="20" as="geometry" />
        </mxCell>
        <mxCell id="QmDL1ngPozNIfJA5Vx8l-42" value="TCP Connection" style="text;html=1;align=center;verticalAlign=middle;whiteSpace=wrap;rounded=0;fontStyle=1" vertex="1" parent="1">
          <mxGeometry x="384" y="150" width="106" height="30" as="geometry" />
        </mxCell>
        <mxCell id="QmDL1ngPozNIfJA5Vx8l-44" value="" style="edgeStyle=orthogonalEdgeStyle;rounded=0;orthogonalLoop=1;jettySize=auto;html=1;exitX=1;exitY=0.25;exitDx=0;exitDy=0;startArrow=none;startFill=0;flowAnimation=1;strokeWidth=3;shadow=1;curved=0;strokeColor=#d6c157;entryX=0;entryY=0.75;entryDx=0;entryDy=0;endArrow=classicThin;endFill=1;" edge="1" parent="1" target="QmDL1ngPozNIfJA5Vx8l-35">
          <mxGeometry relative="1" as="geometry">
            <mxPoint x="309.9980307306992" y="204.04591407961436" as="sourcePoint" />
            <mxPoint x="537.6225287699517" y="204" as="targetPoint" />
            <Array as="points" />
          </mxGeometry>
        </mxCell>
        <mxCell id="QmDL1ngPozNIfJA5Vx8l-43" value="HTTP Request" style="text;html=1;align=center;verticalAlign=middle;whiteSpace=wrap;rounded=0;fontStyle=1" vertex="1" parent="1">
          <mxGeometry x="384" y="180" width="106" height="30" as="geometry" />
        </mxCell>
        <mxCell id="QmDL1ngPozNIfJA5Vx8l-45" value="HTTP Response" style="text;html=1;align=center;verticalAlign=middle;whiteSpace=wrap;rounded=0;fontStyle=1" vertex="1" parent="1">
          <mxGeometry x="384" y="205" width="106" height="30" as="geometry" />
        </mxCell>
        <mxCell id="QmDL1ngPozNIfJA5Vx8l-47" value="WWW" style="html=1;outlineConnect=0;fillColor=#CCCCCC;strokeColor=#6881B3;gradientColor=none;gradientDirection=north;strokeWidth=2;shape=mxgraph.networks.cloud;fontColor=#ffffff;fontStyle=1;fontSize=14;" vertex="1" parent="1">
          <mxGeometry x="662.5" y="140" width="90" height="40" as="geometry" />
        </mxCell>
        <mxCell id="QmDL1ngPozNIfJA5Vx8l-49" value="&lt;ul style=&quot;font-size: 14px;&quot;&gt;&lt;li style=&quot;font-size: 14px;&quot;&gt;安全网络浏览&lt;/li&gt;&lt;li style=&quot;font-size: 14px;&quot;&gt;安全网络传输&lt;/li&gt;&lt;/ul&gt;" style="text;strokeColor=none;fillColor=none;html=1;whiteSpace=wrap;verticalAlign=middle;overflow=hidden;fontStyle=1;fontSize=14;" vertex="1" parent="1">
          <mxGeometry x="627.5" y="170" width="160" height="80" as="geometry" />
        </mxCell>
        <mxCell id="QmDL1ngPozNIfJA5Vx8l-50" value="" style="childLayout=tableLayout;recursiveResize=0;shadow=0;fillColor=#fad9d5;strokeColor=none;strokeWidth=3;rounded=1;glass=0;" vertex="1" parent="1">
          <mxGeometry x="40" y="260" width="760" height="120" as="geometry" />
        </mxCell>
        <mxCell id="QmDL1ngPozNIfJA5Vx8l-51" value="" style="shape=tableRow;horizontal=0;startSize=0;swimlaneHead=0;swimlaneBody=0;top=0;left=0;bottom=0;right=0;dropTarget=0;collapsible=0;recursiveResize=0;expand=0;fontStyle=0;fillColor=none;strokeColor=inherit;" vertex="1" parent="QmDL1ngPozNIfJA5Vx8l-50">
          <mxGeometry width="760" height="120" as="geometry" />
        </mxCell>
        <mxCell id="QmDL1ngPozNIfJA5Vx8l-52" value="&lt;span style=&quot;font-size: 20px;&quot;&gt;&lt;b&gt;DNS&lt;/b&gt;&lt;/span&gt;&lt;br&gt;&lt;div style=&quot;font-size: 14px;&quot;&gt;&lt;font style=&quot;font-size: 14px;&quot;&gt;&lt;b style=&quot;&quot;&gt;Domain Name System&lt;br&gt;&lt;/b&gt;&lt;/font&gt;&lt;/div&gt;&lt;div style=&quot;font-size: 14px;&quot;&gt;&lt;b&gt;域名系统&lt;/b&gt;&lt;/div&gt;" style="connectable=0;recursiveResize=0;strokeColor=inherit;fillColor=none;align=center;whiteSpace=wrap;html=1;" vertex="1" parent="QmDL1ngPozNIfJA5Vx8l-51">
          <mxGeometry width="200" height="120" as="geometry">
            <mxRectangle width="200" height="120" as="alternateBounds" />
          </mxGeometry>
        </mxCell>
        <mxCell id="QmDL1ngPozNIfJA5Vx8l-53" value="" style="connectable=0;recursiveResize=0;strokeColor=#ae4133;fillColor=none;align=center;whiteSpace=wrap;html=1;strokeWidth=1;" vertex="1" parent="QmDL1ngPozNIfJA5Vx8l-51">
          <mxGeometry x="200" width="358" height="120" as="geometry">
            <mxRectangle width="358" height="120" as="alternateBounds" />
          </mxGeometry>
        </mxCell>
        <mxCell id="QmDL1ngPozNIfJA5Vx8l-54" value="" style="connectable=0;recursiveResize=0;strokeColor=inherit;fillColor=none;align=center;whiteSpace=wrap;html=1;" vertex="1" parent="QmDL1ngPozNIfJA5Vx8l-51">
          <mxGeometry x="558" width="202" height="120" as="geometry">
            <mxRectangle width="202" height="120" as="alternateBounds" />
          </mxGeometry>
        </mxCell>
        <mxCell id="QmDL1ngPozNIfJA5Vx8l-71" style="edgeStyle=orthogonalEdgeStyle;rounded=0;orthogonalLoop=1;jettySize=auto;html=1;exitX=0;exitY=0.5;exitDx=0;exitDy=0;entryX=1;entryY=0.5;entryDx=0;entryDy=0;strokeWidth=3;strokeColor=#ae4133;flowAnimation=1;endArrow=classicThin;endFill=1;" edge="1" parent="1">
          <mxGeometry relative="1" as="geometry">
            <mxPoint x="546.9699999999825" y="292.5" as="sourcePoint" />
            <mxPoint x="288.25" y="292.75" as="targetPoint" />
          </mxGeometry>
        </mxCell>
        <mxCell id="QmDL1ngPozNIfJA5Vx8l-55" value="" style="image;perimeter=ellipsePerimeter;html=1;align=center;shadow=0;dashed=0;spacingTop=3;image=img/lib/active_directory/generic_server.svg;aspect=fixed;" vertex="1" parent="1">
          <mxGeometry x="546.97" y="267.5" width="24.55" height="42" as="geometry" />
        </mxCell>
        <mxCell id="QmDL1ngPozNIfJA5Vx8l-69" style="edgeStyle=orthogonalEdgeStyle;rounded=0;orthogonalLoop=1;jettySize=auto;html=1;exitX=1;exitY=0.25;exitDx=0;exitDy=0;entryX=0;entryY=0.25;entryDx=0;entryDy=0;strokeWidth=3;strokeColor=#ae4133;flowAnimation=1;endArrow=classicThin;endFill=1;" edge="1" parent="1" source="QmDL1ngPozNIfJA5Vx8l-57" target="QmDL1ngPozNIfJA5Vx8l-55">
          <mxGeometry relative="1" as="geometry" />
        </mxCell>
        <mxCell id="QmDL1ngPozNIfJA5Vx8l-57" value="" style="image;aspect=fixed;perimeter=ellipsePerimeter;html=1;align=center;shadow=0;dashed=0;spacingTop=3;image=img/lib/active_directory/laptop_client.svg;" vertex="1" parent="1">
          <mxGeometry x="250" y="267.5" width="38.25" height="42.5" as="geometry" />
        </mxCell>
        <mxCell id="QmDL1ngPozNIfJA5Vx8l-59" value="&lt;font style=&quot;font-size: 12px;&quot;&gt;客户端&lt;/font&gt;" style="text;strokeColor=none;fillColor=none;html=1;fontSize=12;fontStyle=1;verticalAlign=middle;align=center;" vertex="1" parent="1">
          <mxGeometry x="234.13" y="309.5" width="70" height="20" as="geometry" />
        </mxCell>
        <mxCell id="QmDL1ngPozNIfJA5Vx8l-66" value="&lt;ul style=&quot;font-size: 14px;&quot;&gt;&lt;li style=&quot;font-size: 14px;&quot;&gt;网站地址解析&lt;/li&gt;&lt;li style=&quot;font-size: 14px;&quot;&gt;复杂均衡&lt;/li&gt;&lt;/ul&gt;" style="text;strokeColor=none;fillColor=none;html=1;whiteSpace=wrap;verticalAlign=middle;overflow=hidden;fontStyle=1;fontSize=14;" vertex="1" parent="1">
          <mxGeometry x="627.5" y="300" width="160" height="80" as="geometry" />
        </mxCell>
        <mxCell id="QmDL1ngPozNIfJA5Vx8l-67" value="&lt;font style=&quot;font-size: 12px;&quot;&gt;Web 服务&lt;/font&gt;" style="text;strokeColor=none;fillColor=none;html=1;fontSize=12;fontStyle=1;verticalAlign=middle;align=center;" vertex="1" parent="1">
          <mxGeometry x="524.25" y="309.5" width="70" height="20" as="geometry" />
        </mxCell>
        <mxCell id="QmDL1ngPozNIfJA5Vx8l-70" value="123.56.90.xx" style="text;html=1;align=center;verticalAlign=middle;whiteSpace=wrap;rounded=0;fontStyle=1" vertex="1" parent="1">
          <mxGeometry x="367" y="255" width="106" height="30" as="geometry" />
        </mxCell>
        <mxCell id="QmDL1ngPozNIfJA5Vx8l-72" value="源文件" style="text;html=1;align=center;verticalAlign=middle;whiteSpace=wrap;rounded=0;fontStyle=1" vertex="1" parent="1">
          <mxGeometry x="367" y="290" width="106" height="30" as="geometry" />
        </mxCell>
        <mxCell id="QmDL1ngPozNIfJA5Vx8l-76" value="" style="image;sketch=0;aspect=fixed;html=1;points=[];align=center;fontSize=12;image=img/lib/mscae/DNS.svg;" vertex="1" parent="1">
          <mxGeometry x="390" y="329.5" width="43.5" height="43.5" as="geometry" />
        </mxCell>
        <mxCell id="QmDL1ngPozNIfJA5Vx8l-77" value="DNS 服务" style="text;html=1;align=center;verticalAlign=middle;whiteSpace=wrap;rounded=0;fontStyle=1" vertex="1" parent="1">
          <mxGeometry x="433.5" y="340" width="56" height="30" as="geometry" />
        </mxCell>
        <mxCell id="QmDL1ngPozNIfJA5Vx8l-78" style="rounded=0;orthogonalLoop=1;jettySize=auto;html=1;entryX=0.046;entryY=0.218;entryDx=0;entryDy=0;entryPerimeter=0;strokeWidth=3;strokeColor=#ae4133;flowAnimation=1;endArrow=classicThin;endFill=1;" edge="1" parent="1" target="QmDL1ngPozNIfJA5Vx8l-76">
          <mxGeometry relative="1" as="geometry">
            <mxPoint x="283" y="304" as="sourcePoint" />
          </mxGeometry>
        </mxCell>
        <mxCell id="QmDL1ngPozNIfJA5Vx8l-79" value="example.com" style="text;html=1;align=center;verticalAlign=middle;whiteSpace=wrap;rounded=0;fontStyle=1;rotation=17;" vertex="1" parent="1">
          <mxGeometry x="305.44" y="301.43" width="87.87" height="20" as="geometry" />
        </mxCell>
        <mxCell id="QmDL1ngPozNIfJA5Vx8l-81" style="rounded=0;orthogonalLoop=1;jettySize=auto;html=1;exitX=1;exitY=1;exitDx=0;exitDy=0;strokeWidth=3;strokeColor=#ae4133;flowAnimation=1;endArrow=classicThin;endFill=1;" edge="1" parent="1">
          <mxGeometry relative="1" as="geometry">
            <mxPoint x="390" y="357.5" as="sourcePoint" />
            <mxPoint x="290" y="323" as="targetPoint" />
          </mxGeometry>
        </mxCell>
        <mxCell id="QmDL1ngPozNIfJA5Vx8l-82" value="123.56.90.xx" style="text;html=1;align=center;verticalAlign=middle;whiteSpace=wrap;rounded=0;fontStyle=1;rotation=17;" vertex="1" parent="1">
          <mxGeometry x="288.25" y="341.25" width="87.87" height="20" as="geometry" />
        </mxCell>
        <mxCell id="QmDL1ngPozNIfJA5Vx8l-83" value="" style="verticalLabelPosition=bottom;html=1;verticalAlign=top;align=center;strokeColor=none;fillColor=#00BEF2;shape=mxgraph.azure.azure_website;pointerEvents=1;" vertex="1" parent="1">
          <mxGeometry x="682.5" y="263.75" width="50" height="50" as="geometry" />
        </mxCell>
        <mxCell id="QmDL1ngPozNIfJA5Vx8l-86" value="" style="childLayout=tableLayout;recursiveResize=0;shadow=0;fillColor=#b1ddf0;strokeColor=none;strokeWidth=3;rounded=1;glass=0;" vertex="1" parent="1">
          <mxGeometry x="40" y="389" width="760" height="120" as="geometry" />
        </mxCell>
        <mxCell id="QmDL1ngPozNIfJA5Vx8l-87" value="" style="shape=tableRow;horizontal=0;startSize=0;swimlaneHead=0;swimlaneBody=0;top=0;left=0;bottom=0;right=0;dropTarget=0;collapsible=0;recursiveResize=0;expand=0;fontStyle=0;fillColor=none;strokeColor=inherit;" vertex="1" parent="QmDL1ngPozNIfJA5Vx8l-86">
          <mxGeometry width="760" height="120" as="geometry" />
        </mxCell>
        <mxCell id="QmDL1ngPozNIfJA5Vx8l-88" value="&lt;font style=&quot;font-size: 20px;&quot;&gt;&lt;b&gt;TCP&lt;/b&gt;&lt;/font&gt;&lt;div style=&quot;font-size: 14px;&quot;&gt;&lt;font style=&quot;font-size: 14px;&quot;&gt;&lt;b style=&quot;&quot;&gt;Transmission Control Protocol&lt;br&gt;&lt;/b&gt;&lt;/font&gt;&lt;/div&gt;&lt;div style=&quot;font-size: 14px;&quot;&gt;&lt;b&gt;传输控制协议&lt;/b&gt;&lt;/div&gt;" style="connectable=0;recursiveResize=0;strokeColor=inherit;fillColor=none;align=center;whiteSpace=wrap;html=1;" vertex="1" parent="QmDL1ngPozNIfJA5Vx8l-87">
          <mxGeometry width="200" height="120" as="geometry">
            <mxRectangle width="200" height="120" as="alternateBounds" />
          </mxGeometry>
        </mxCell>
        <mxCell id="QmDL1ngPozNIfJA5Vx8l-89" value="" style="connectable=0;recursiveResize=0;strokeColor=#11739e;fillColor=none;align=center;whiteSpace=wrap;html=1;strokeWidth=1;" vertex="1" parent="QmDL1ngPozNIfJA5Vx8l-87">
          <mxGeometry x="200" width="360" height="120" as="geometry">
            <mxRectangle width="360" height="120" as="alternateBounds" />
          </mxGeometry>
        </mxCell>
        <mxCell id="QmDL1ngPozNIfJA5Vx8l-90" value="" style="connectable=0;recursiveResize=0;strokeColor=inherit;fillColor=none;align=center;whiteSpace=wrap;html=1;" vertex="1" parent="QmDL1ngPozNIfJA5Vx8l-87">
          <mxGeometry x="560" width="200" height="120" as="geometry">
            <mxRectangle width="200" height="120" as="alternateBounds" />
          </mxGeometry>
        </mxCell>
        <mxCell id="QmDL1ngPozNIfJA5Vx8l-91" value="" style="image;perimeter=ellipsePerimeter;html=1;align=center;shadow=0;dashed=0;spacingTop=3;image=img/lib/active_directory/generic_server.svg;" vertex="1" parent="1">
          <mxGeometry x="530" y="416.5" width="58.5" height="65" as="geometry" />
        </mxCell>
        <mxCell id="QmDL1ngPozNIfJA5Vx8l-92" style="edgeStyle=orthogonalEdgeStyle;rounded=0;orthogonalLoop=1;jettySize=auto;html=1;exitX=1;exitY=0.25;exitDx=0;exitDy=0;startArrow=none;startFill=0;flowAnimation=1;strokeWidth=3;shadow=1;curved=0;strokeColor=#10739e;endArrow=classicThin;endFill=1;fillColor=#b1ddf0;" edge="1" parent="1">
          <mxGeometry relative="1" as="geometry">
            <mxPoint x="311.4480307306992" y="434.54591407961436" as="sourcePoint" />
            <mxPoint x="539.0725287699518" y="434.5" as="targetPoint" />
            <Array as="points">
              <mxPoint x="476" y="435" />
              <mxPoint x="476" y="435" />
            </Array>
          </mxGeometry>
        </mxCell>
        <mxCell id="QmDL1ngPozNIfJA5Vx8l-93" value="" style="image;aspect=fixed;perimeter=ellipsePerimeter;html=1;align=center;shadow=0;dashed=0;spacingTop=3;image=img/lib/active_directory/laptop_client.svg;" vertex="1" parent="1">
          <mxGeometry x="250" y="416.5" width="58.5" height="65" as="geometry" />
        </mxCell>
        <mxCell id="QmDL1ngPozNIfJA5Vx8l-94" style="edgeStyle=orthogonalEdgeStyle;rounded=0;orthogonalLoop=1;jettySize=auto;html=1;exitX=1;exitY=0.25;exitDx=0;exitDy=0;startArrow=none;startFill=0;flowAnimation=1;strokeWidth=3;shadow=1;curved=0;strokeColor=#10739e;endArrow=classicThin;endFill=1;fillColor=#b1ddf0;" edge="1" parent="1">
          <mxGeometry relative="1" as="geometry">
            <mxPoint x="304.9980307306992" y="489.04591407961436" as="sourcePoint" />
            <mxPoint x="532.6225287699517" y="489" as="targetPoint" />
            <Array as="points">
              <mxPoint x="469.55" y="489.5" />
              <mxPoint x="469.55" y="489.5" />
            </Array>
          </mxGeometry>
        </mxCell>
        <mxCell id="QmDL1ngPozNIfJA5Vx8l-95" value="&lt;font style=&quot;font-size: 15px;&quot;&gt;客户端&lt;/font&gt;" style="text;strokeColor=none;fillColor=none;html=1;fontSize=15;fontStyle=1;verticalAlign=middle;align=center;" vertex="1" parent="1">
          <mxGeometry x="238.5" y="481.5" width="70" height="20" as="geometry" />
        </mxCell>
        <mxCell id="QmDL1ngPozNIfJA5Vx8l-96" value="&lt;span style=&quot;font-size: 14px;&quot;&gt;服务&lt;/span&gt;" style="text;strokeColor=none;fillColor=none;html=1;fontSize=14;fontStyle=1;verticalAlign=middle;align=center;" vertex="1" parent="1">
          <mxGeometry x="524.25" y="481.5" width="70" height="20" as="geometry" />
        </mxCell>
        <mxCell id="QmDL1ngPozNIfJA5Vx8l-97" value="SYN" style="text;html=1;align=center;verticalAlign=middle;whiteSpace=wrap;rounded=0;fontStyle=1" vertex="1" parent="1">
          <mxGeometry x="384" y="409" width="106" height="30" as="geometry" />
        </mxCell>
        <mxCell id="QmDL1ngPozNIfJA5Vx8l-98" value="" style="edgeStyle=orthogonalEdgeStyle;rounded=0;orthogonalLoop=1;jettySize=auto;html=1;exitX=0;exitY=0.75;exitDx=0;exitDy=0;startArrow=none;startFill=0;flowAnimation=1;strokeWidth=3;shadow=1;curved=0;strokeColor=#10739e;entryX=0;entryY=0.75;entryDx=0;entryDy=0;endArrow=classicThin;endFill=1;fillColor=#b1ddf0;" edge="1" parent="1" source="QmDL1ngPozNIfJA5Vx8l-91">
          <mxGeometry relative="1" as="geometry">
            <mxPoint x="537.6225287699517" y="463" as="sourcePoint" />
            <mxPoint x="309.9980307306992" y="463.04591407961436" as="targetPoint" />
            <Array as="points" />
          </mxGeometry>
        </mxCell>
        <mxCell id="QmDL1ngPozNIfJA5Vx8l-99" value="SYN + ACK" style="text;html=1;align=center;verticalAlign=middle;whiteSpace=wrap;rounded=0;fontStyle=1" vertex="1" parent="1">
          <mxGeometry x="384" y="439" width="106" height="30" as="geometry" />
        </mxCell>
        <mxCell id="QmDL1ngPozNIfJA5Vx8l-100" value="ACK" style="text;html=1;align=center;verticalAlign=middle;whiteSpace=wrap;rounded=0;fontStyle=1" vertex="1" parent="1">
          <mxGeometry x="384" y="464" width="106" height="30" as="geometry" />
        </mxCell>
        <mxCell id="QmDL1ngPozNIfJA5Vx8l-102" value="&lt;ul style=&quot;font-size: 14px;&quot;&gt;&lt;li style=&quot;font-size: 14px;&quot;&gt;文件传输&lt;/li&gt;&lt;/ul&gt;" style="text;strokeColor=none;fillColor=none;html=1;whiteSpace=wrap;verticalAlign=middle;overflow=hidden;fontStyle=1;fontSize=14;" vertex="1" parent="1">
          <mxGeometry x="627.5" y="429" width="160" height="80" as="geometry" />
        </mxCell>
        <mxCell id="QmDL1ngPozNIfJA5Vx8l-103" value="" style="dashed=0;outlineConnect=0;html=1;align=center;labelPosition=center;verticalLabelPosition=bottom;verticalAlign=top;shape=mxgraph.weblogos.citeulike;fillColor=#698139" vertex="1" parent="1">
          <mxGeometry x="669.7" y="396" width="75.60000000000001" height="36" as="geometry" />
        </mxCell>
        <mxCell id="QmDL1ngPozNIfJA5Vx8l-104" value="" style="childLayout=tableLayout;recursiveResize=0;shadow=0;fillColor=#b0e3e6;strokeColor=none;strokeWidth=3;rounded=1;glass=0;" vertex="1" parent="1">
          <mxGeometry x="40" y="517" width="760" height="120" as="geometry" />
        </mxCell>
        <mxCell id="QmDL1ngPozNIfJA5Vx8l-105" value="" style="shape=tableRow;horizontal=0;startSize=0;swimlaneHead=0;swimlaneBody=0;top=0;left=0;bottom=0;right=0;dropTarget=0;collapsible=0;recursiveResize=0;expand=0;fontStyle=0;fillColor=none;strokeColor=inherit;" vertex="1" parent="QmDL1ngPozNIfJA5Vx8l-104">
          <mxGeometry width="760" height="120" as="geometry" />
        </mxCell>
        <mxCell id="QmDL1ngPozNIfJA5Vx8l-106" value="&lt;span style=&quot;font-size: 20px;&quot;&gt;&lt;b&gt;DHCP&lt;/b&gt;&lt;/span&gt;&lt;br&gt;&lt;div style=&quot;font-size: 14px;&quot;&gt;&lt;font style=&quot;font-size: 14px;&quot;&gt;&lt;b style=&quot;&quot;&gt;Dynamic Host Configuation Protocol&lt;br&gt;&lt;/b&gt;&lt;/font&gt;&lt;/div&gt;&lt;div style=&quot;font-size: 14px;&quot;&gt;&lt;b&gt;动态主机配置协议&lt;/b&gt;&lt;/div&gt;" style="connectable=0;recursiveResize=0;strokeColor=inherit;fillColor=none;align=center;whiteSpace=wrap;html=1;" vertex="1" parent="QmDL1ngPozNIfJA5Vx8l-105">
          <mxGeometry width="200" height="120" as="geometry">
            <mxRectangle width="200" height="120" as="alternateBounds" />
          </mxGeometry>
        </mxCell>
        <mxCell id="QmDL1ngPozNIfJA5Vx8l-107" value="" style="connectable=0;recursiveResize=0;strokeColor=#0f8089;fillColor=none;align=center;whiteSpace=wrap;html=1;strokeWidth=1;" vertex="1" parent="QmDL1ngPozNIfJA5Vx8l-105">
          <mxGeometry x="200" width="360" height="120" as="geometry">
            <mxRectangle width="360" height="120" as="alternateBounds" />
          </mxGeometry>
        </mxCell>
        <mxCell id="QmDL1ngPozNIfJA5Vx8l-108" value="" style="connectable=0;recursiveResize=0;strokeColor=inherit;fillColor=none;align=center;whiteSpace=wrap;html=1;" vertex="1" parent="QmDL1ngPozNIfJA5Vx8l-105">
          <mxGeometry x="560" width="200" height="120" as="geometry">
            <mxRectangle width="200" height="120" as="alternateBounds" />
          </mxGeometry>
        </mxCell>
        <mxCell id="QmDL1ngPozNIfJA5Vx8l-109" value="" style="image;perimeter=ellipsePerimeter;html=1;align=center;shadow=0;dashed=0;spacingTop=3;image=img/lib/active_directory/generic_server.svg;" vertex="1" parent="1">
          <mxGeometry x="530" y="544.5" width="58.5" height="65" as="geometry" />
        </mxCell>
        <mxCell id="QmDL1ngPozNIfJA5Vx8l-110" style="edgeStyle=orthogonalEdgeStyle;rounded=0;orthogonalLoop=1;jettySize=auto;html=1;exitX=1;exitY=0.25;exitDx=0;exitDy=0;startArrow=none;startFill=0;flowAnimation=1;strokeWidth=3;shadow=1;curved=0;strokeColor=#0e8088;endArrow=classicThin;endFill=1;fillColor=#b0e3e6;" edge="1" parent="1">
          <mxGeometry relative="1" as="geometry">
            <mxPoint x="311.4480307306992" y="554.0459140796144" as="sourcePoint" />
            <mxPoint x="539.0725287699518" y="554" as="targetPoint" />
            <Array as="points">
              <mxPoint x="476" y="554.5" />
              <mxPoint x="476" y="554.5" />
            </Array>
          </mxGeometry>
        </mxCell>
        <mxCell id="QmDL1ngPozNIfJA5Vx8l-111" value="" style="image;aspect=fixed;perimeter=ellipsePerimeter;html=1;align=center;shadow=0;dashed=0;spacingTop=3;image=img/lib/active_directory/laptop_client.svg;" vertex="1" parent="1">
          <mxGeometry x="250" y="544.5" width="58.5" height="65" as="geometry" />
        </mxCell>
        <mxCell id="QmDL1ngPozNIfJA5Vx8l-112" style="edgeStyle=orthogonalEdgeStyle;rounded=0;orthogonalLoop=1;jettySize=auto;html=1;exitX=1;exitY=0.25;exitDx=0;exitDy=0;startArrow=none;startFill=0;flowAnimation=1;strokeWidth=3;shadow=1;curved=0;strokeColor=#0e8088;endArrow=classicThin;endFill=1;fillColor=#b0e3e6;" edge="1" parent="1">
          <mxGeometry relative="1" as="geometry">
            <mxPoint x="304.9980307306992" y="594.0459140796144" as="sourcePoint" />
            <mxPoint x="532.6225287699517" y="594" as="targetPoint" />
            <Array as="points">
              <mxPoint x="469.55" y="594.5" />
              <mxPoint x="469.55" y="594.5" />
            </Array>
          </mxGeometry>
        </mxCell>
        <mxCell id="QmDL1ngPozNIfJA5Vx8l-113" value="&lt;font style=&quot;font-size: 15px;&quot;&gt;客户端&lt;/font&gt;" style="text;strokeColor=none;fillColor=none;html=1;fontSize=15;fontStyle=1;verticalAlign=middle;align=center;" vertex="1" parent="1">
          <mxGeometry x="238.5" y="609.5" width="70" height="20" as="geometry" />
        </mxCell>
        <mxCell id="QmDL1ngPozNIfJA5Vx8l-114" value="&lt;span style=&quot;font-size: 14px;&quot;&gt;DHCP 服务&lt;/span&gt;" style="text;strokeColor=none;fillColor=none;html=1;fontSize=14;fontStyle=1;verticalAlign=middle;align=center;" vertex="1" parent="1">
          <mxGeometry x="524.25" y="609.5" width="70" height="20" as="geometry" />
        </mxCell>
        <mxCell id="QmDL1ngPozNIfJA5Vx8l-115" value="DHCP Disconver" style="text;html=1;align=center;verticalAlign=middle;whiteSpace=wrap;rounded=0;fontStyle=1" vertex="1" parent="1">
          <mxGeometry x="384" y="527" width="106" height="30" as="geometry" />
        </mxCell>
        <mxCell id="QmDL1ngPozNIfJA5Vx8l-116" value="" style="edgeStyle=orthogonalEdgeStyle;rounded=0;orthogonalLoop=1;jettySize=auto;html=1;exitX=0;exitY=0.75;exitDx=0;exitDy=0;startArrow=none;startFill=0;flowAnimation=1;strokeWidth=3;shadow=1;curved=0;strokeColor=#0e8088;entryX=0;entryY=0.75;entryDx=0;entryDy=0;endArrow=classicThin;endFill=1;fillColor=#b0e3e6;" edge="1" parent="1">
          <mxGeometry relative="1" as="geometry">
            <mxPoint x="533.0519692692849" y="573.4540859203948" as="sourcePoint" />
            <mxPoint x="309.9980307306992" y="573.0459140796144" as="targetPoint" />
            <Array as="points" />
          </mxGeometry>
        </mxCell>
        <mxCell id="QmDL1ngPozNIfJA5Vx8l-117" value="DHCP Offer" style="text;html=1;align=center;verticalAlign=middle;whiteSpace=wrap;rounded=0;fontStyle=1" vertex="1" parent="1">
          <mxGeometry x="384" y="548" width="106" height="30" as="geometry" />
        </mxCell>
        <mxCell id="QmDL1ngPozNIfJA5Vx8l-118" value="DHCP Request" style="text;html=1;align=center;verticalAlign=middle;whiteSpace=wrap;rounded=0;fontStyle=1" vertex="1" parent="1">
          <mxGeometry x="384" y="569" width="106" height="30" as="geometry" />
        </mxCell>
        <mxCell id="QmDL1ngPozNIfJA5Vx8l-119" value="&lt;ul style=&quot;font-size: 14px;&quot;&gt;&lt;li style=&quot;font-size: 14px;&quot;&gt;动态 IP分配&lt;/li&gt;&lt;li style=&quot;font-size: 14px;&quot;&gt;网络配置&lt;/li&gt;&lt;/ul&gt;" style="text;strokeColor=none;fillColor=none;html=1;whiteSpace=wrap;verticalAlign=middle;overflow=hidden;fontStyle=1;fontSize=14;" vertex="1" parent="1">
          <mxGeometry x="627.5" y="557" width="160" height="80" as="geometry" />
        </mxCell>
        <mxCell id="QmDL1ngPozNIfJA5Vx8l-121" value="DHCP Acknowledge" style="text;html=1;align=center;verticalAlign=middle;whiteSpace=wrap;rounded=0;fontStyle=1" vertex="1" parent="1">
          <mxGeometry x="374" y="588" width="126" height="30" as="geometry" />
        </mxCell>
        <mxCell id="QmDL1ngPozNIfJA5Vx8l-122" value="" style="edgeStyle=orthogonalEdgeStyle;rounded=0;orthogonalLoop=1;jettySize=auto;html=1;exitX=0;exitY=0.75;exitDx=0;exitDy=0;startArrow=none;startFill=0;flowAnimation=1;strokeWidth=3;shadow=1;curved=0;strokeColor=#0e8088;entryX=0;entryY=0.75;entryDx=0;entryDy=0;endArrow=classicThin;endFill=1;fillColor=#b0e3e6;" edge="1" parent="1">
          <mxGeometry relative="1" as="geometry">
            <mxPoint x="531.5319692692849" y="614.4040859203949" as="sourcePoint" />
            <mxPoint x="308.47803073069923" y="613.9959140796144" as="targetPoint" />
            <Array as="points" />
          </mxGeometry>
        </mxCell>
        <mxCell id="QmDL1ngPozNIfJA5Vx8l-123" value="" style="verticalLabelPosition=bottom;sketch=0;aspect=fixed;html=1;verticalAlign=top;strokeColor=none;align=center;outlineConnect=0;shape=mxgraph.citrix.dhcp_server;" vertex="1" parent="1">
          <mxGeometry x="682.5" y="519" width="45.6" height="54" as="geometry" />
        </mxCell>
        <mxCell id="QmDL1ngPozNIfJA5Vx8l-124" value="" style="childLayout=tableLayout;recursiveResize=0;shadow=0;fillColor=#d0cee2;strokeColor=none;strokeWidth=3;rounded=1;glass=0;" vertex="1" parent="1">
          <mxGeometry x="40" y="646" width="760" height="120" as="geometry" />
        </mxCell>
        <mxCell id="QmDL1ngPozNIfJA5Vx8l-125" value="" style="shape=tableRow;horizontal=0;startSize=0;swimlaneHead=0;swimlaneBody=0;top=0;left=0;bottom=0;right=0;dropTarget=0;collapsible=0;recursiveResize=0;expand=0;fontStyle=0;fillColor=none;strokeColor=inherit;" vertex="1" parent="QmDL1ngPozNIfJA5Vx8l-124">
          <mxGeometry width="760" height="120" as="geometry" />
        </mxCell>
        <mxCell id="QmDL1ngPozNIfJA5Vx8l-126" value="&lt;span style=&quot;font-size: 20px;&quot;&gt;&lt;b&gt;SMTP&lt;/b&gt;&lt;/span&gt;&lt;br&gt;&lt;div style=&quot;font-size: 14px;&quot;&gt;&lt;b&gt;Simple Mail Transfer Protocol&lt;/b&gt;&lt;/div&gt;&lt;div style=&quot;font-size: 14px;&quot;&gt;&lt;b&gt;电子邮件传输协议&lt;/b&gt;&lt;/div&gt;" style="connectable=0;recursiveResize=0;strokeColor=inherit;fillColor=none;align=center;whiteSpace=wrap;html=1;" vertex="1" parent="QmDL1ngPozNIfJA5Vx8l-125">
          <mxGeometry width="200" height="120" as="geometry">
            <mxRectangle width="200" height="120" as="alternateBounds" />
          </mxGeometry>
        </mxCell>
        <mxCell id="QmDL1ngPozNIfJA5Vx8l-127" value="" style="connectable=0;recursiveResize=0;strokeColor=#56517e;fillColor=none;align=center;whiteSpace=wrap;html=1;strokeWidth=1;" vertex="1" parent="QmDL1ngPozNIfJA5Vx8l-125">
          <mxGeometry x="200" width="360" height="120" as="geometry">
            <mxRectangle width="360" height="120" as="alternateBounds" />
          </mxGeometry>
        </mxCell>
        <mxCell id="QmDL1ngPozNIfJA5Vx8l-128" value="" style="connectable=0;recursiveResize=0;strokeColor=inherit;fillColor=none;align=center;whiteSpace=wrap;html=1;" vertex="1" parent="QmDL1ngPozNIfJA5Vx8l-125">
          <mxGeometry x="560" width="200" height="120" as="geometry">
            <mxRectangle width="200" height="120" as="alternateBounds" />
          </mxGeometry>
        </mxCell>
        <mxCell id="QmDL1ngPozNIfJA5Vx8l-129" value="" style="image;perimeter=ellipsePerimeter;html=1;align=center;shadow=0;dashed=0;spacingTop=3;image=img/lib/active_directory/generic_server.svg;" vertex="1" parent="1">
          <mxGeometry x="530" y="673.5" width="58.5" height="65" as="geometry" />
        </mxCell>
        <mxCell id="QmDL1ngPozNIfJA5Vx8l-144" style="edgeStyle=orthogonalEdgeStyle;rounded=0;orthogonalLoop=1;jettySize=auto;html=1;exitX=1;exitY=0.5;exitDx=0;exitDy=0;strokeWidth=3;flowAnimation=1;endArrow=classicThin;endFill=1;fillColor=#d0cee2;strokeColor=#56517e;" edge="1" parent="1" source="QmDL1ngPozNIfJA5Vx8l-131" target="QmDL1ngPozNIfJA5Vx8l-143">
          <mxGeometry relative="1" as="geometry" />
        </mxCell>
        <mxCell id="QmDL1ngPozNIfJA5Vx8l-131" value="" style="image;aspect=fixed;perimeter=ellipsePerimeter;html=1;align=center;shadow=0;dashed=0;spacingTop=3;image=img/lib/active_directory/laptop_client.svg;" vertex="1" parent="1">
          <mxGeometry x="250" y="673.5" width="58.5" height="65" as="geometry" />
        </mxCell>
        <mxCell id="QmDL1ngPozNIfJA5Vx8l-133" value="&lt;font style=&quot;font-size: 15px;&quot;&gt;客户端&lt;/font&gt;" style="text;strokeColor=none;fillColor=none;html=1;fontSize=15;fontStyle=1;verticalAlign=middle;align=center;" vertex="1" parent="1">
          <mxGeometry x="238.5" y="738.5" width="70" height="20" as="geometry" />
        </mxCell>
        <mxCell id="QmDL1ngPozNIfJA5Vx8l-134" value="接收者" style="text;strokeColor=none;fillColor=none;html=1;fontSize=14;fontStyle=1;verticalAlign=middle;align=center;" vertex="1" parent="1">
          <mxGeometry x="524.25" y="738.5" width="70" height="20" as="geometry" />
        </mxCell>
        <mxCell id="QmDL1ngPozNIfJA5Vx8l-139" value="&lt;ul style=&quot;font-size: 14px;&quot;&gt;&lt;li style=&quot;font-size: 14px;&quot;&gt;邮件发送&lt;/li&gt;&lt;/ul&gt;" style="text;strokeColor=none;fillColor=none;html=1;whiteSpace=wrap;verticalAlign=middle;overflow=hidden;fontStyle=1;fontSize=14;" vertex="1" parent="1">
          <mxGeometry x="627.5" y="686" width="160" height="80" as="geometry" />
        </mxCell>
        <mxCell id="QmDL1ngPozNIfJA5Vx8l-143" value="" style="sketch=0;pointerEvents=1;shadow=0;dashed=0;html=1;strokeColor=none;fillColor=#505050;labelPosition=center;verticalLabelPosition=bottom;verticalAlign=top;outlineConnect=0;align=center;shape=mxgraph.office.communications.smtp_connector;" vertex="1" parent="1">
          <mxGeometry x="396.5" y="681.5" width="47" height="49" as="geometry" />
        </mxCell>
        <mxCell id="QmDL1ngPozNIfJA5Vx8l-145" style="edgeStyle=orthogonalEdgeStyle;rounded=0;orthogonalLoop=1;jettySize=auto;html=1;exitX=1;exitY=0.5;exitDx=0;exitDy=0;strokeWidth=3;flowAnimation=1;endArrow=classicThin;endFill=1;fillColor=#d0cee2;strokeColor=#56517e;" edge="1" parent="1">
          <mxGeometry relative="1" as="geometry">
            <mxPoint x="446" y="705.5" as="sourcePoint" />
            <mxPoint x="534" y="705.5" as="targetPoint" />
          </mxGeometry>
        </mxCell>
        <mxCell id="QmDL1ngPozNIfJA5Vx8l-146" value="" style="shape=message;html=1;html=1;outlineConnect=0;labelPosition=center;verticalLabelPosition=bottom;align=center;verticalAlign=top;" vertex="1" parent="1">
          <mxGeometry x="334.88" y="681.5" width="29" height="19" as="geometry" />
        </mxCell>
        <mxCell id="QmDL1ngPozNIfJA5Vx8l-147" value="" style="shape=message;html=1;html=1;outlineConnect=0;labelPosition=center;verticalLabelPosition=bottom;align=center;verticalAlign=top;" vertex="1" parent="1">
          <mxGeometry x="473" y="681.5" width="29" height="19" as="geometry" />
        </mxCell>
        <mxCell id="QmDL1ngPozNIfJA5Vx8l-149" value="SMTP 服务" style="text;strokeColor=none;fillColor=none;html=1;fontSize=14;fontStyle=1;verticalAlign=middle;align=center;" vertex="1" parent="1">
          <mxGeometry x="381" y="738.5" width="70" height="20" as="geometry" />
        </mxCell>
        <mxCell id="QmDL1ngPozNIfJA5Vx8l-150" value="" style="outlineConnect=0;dashed=0;verticalLabelPosition=bottom;verticalAlign=top;align=center;html=1;shape=mxgraph.aws3.workmail;fillColor=#D16A28;gradientColor=#F58435;gradientDirection=north;" vertex="1" parent="1">
          <mxGeometry x="673" y="651" width="46" height="54" as="geometry" />
        </mxCell>
        <mxCell id="QmDL1ngPozNIfJA5Vx8l-151" value="" style="childLayout=tableLayout;recursiveResize=0;shadow=0;fillColor=#bac8d3;strokeColor=none;strokeWidth=3;rounded=1;glass=0;" vertex="1" parent="1">
          <mxGeometry x="40" y="776" width="759.75" height="120" as="geometry" />
        </mxCell>
        <mxCell id="QmDL1ngPozNIfJA5Vx8l-152" value="" style="shape=tableRow;horizontal=0;startSize=0;swimlaneHead=0;swimlaneBody=0;top=0;left=0;bottom=0;right=0;dropTarget=0;collapsible=0;recursiveResize=0;expand=0;fontStyle=0;fillColor=none;strokeColor=inherit;" vertex="1" parent="QmDL1ngPozNIfJA5Vx8l-151">
          <mxGeometry width="759.75" height="120" as="geometry" />
        </mxCell>
        <mxCell id="QmDL1ngPozNIfJA5Vx8l-153" value="&lt;span style=&quot;font-size: 20px;&quot;&gt;&lt;b&gt;UDP&lt;/b&gt;&lt;/span&gt;&lt;br&gt;&lt;div style=&quot;font-size: 14px;&quot;&gt;&lt;b&gt;User Datagram Protocol&lt;/b&gt;&lt;/div&gt;&lt;div style=&quot;font-size: 14px;&quot;&gt;&lt;b&gt;用户数据报协议&lt;/b&gt;&lt;/div&gt;" style="connectable=0;recursiveResize=0;strokeColor=inherit;fillColor=none;align=center;whiteSpace=wrap;html=1;" vertex="1" parent="QmDL1ngPozNIfJA5Vx8l-152">
          <mxGeometry width="200" height="120" as="geometry">
            <mxRectangle width="200" height="120" as="alternateBounds" />
          </mxGeometry>
        </mxCell>
        <mxCell id="QmDL1ngPozNIfJA5Vx8l-154" value="" style="connectable=0;recursiveResize=0;strokeColor=#24445d;fillColor=none;align=center;whiteSpace=wrap;html=1;strokeWidth=1;" vertex="1" parent="QmDL1ngPozNIfJA5Vx8l-152">
          <mxGeometry x="200" width="360" height="120" as="geometry">
            <mxRectangle width="360" height="120" as="alternateBounds" />
          </mxGeometry>
        </mxCell>
        <mxCell id="QmDL1ngPozNIfJA5Vx8l-155" value="" style="connectable=0;recursiveResize=0;strokeColor=inherit;fillColor=none;align=center;whiteSpace=wrap;html=1;" vertex="1" parent="QmDL1ngPozNIfJA5Vx8l-152">
          <mxGeometry x="560" width="200" height="120" as="geometry">
            <mxRectangle width="200" height="120" as="alternateBounds" />
          </mxGeometry>
        </mxCell>
        <mxCell id="QmDL1ngPozNIfJA5Vx8l-156" value="" style="image;perimeter=ellipsePerimeter;html=1;align=center;shadow=0;dashed=0;spacingTop=3;image=img/lib/active_directory/generic_server.svg;" vertex="1" parent="1">
          <mxGeometry x="530" y="803.5" width="58.5" height="65" as="geometry" />
        </mxCell>
        <mxCell id="QmDL1ngPozNIfJA5Vx8l-169" style="edgeStyle=orthogonalEdgeStyle;rounded=0;orthogonalLoop=1;jettySize=auto;html=1;exitX=1;exitY=0.25;exitDx=0;exitDy=0;fillColor=#bac8d3;strokeColor=#23445d;strokeWidth=3;flowAnimation=1;" edge="1" parent="1" source="QmDL1ngPozNIfJA5Vx8l-158" target="QmDL1ngPozNIfJA5Vx8l-156">
          <mxGeometry relative="1" as="geometry">
            <Array as="points">
              <mxPoint x="473" y="822" />
              <mxPoint x="473" y="822" />
            </Array>
          </mxGeometry>
        </mxCell>
        <mxCell id="QmDL1ngPozNIfJA5Vx8l-158" value="" style="image;aspect=fixed;perimeter=ellipsePerimeter;html=1;align=center;shadow=0;dashed=0;spacingTop=3;image=img/lib/active_directory/laptop_client.svg;" vertex="1" parent="1">
          <mxGeometry x="250" y="803.5" width="58.5" height="65" as="geometry" />
        </mxCell>
        <mxCell id="QmDL1ngPozNIfJA5Vx8l-159" value="&lt;font style=&quot;font-size: 15px;&quot;&gt;客户端&lt;/font&gt;" style="text;strokeColor=none;fillColor=none;html=1;fontSize=15;fontStyle=1;verticalAlign=middle;align=center;" vertex="1" parent="1">
          <mxGeometry x="238.5" y="868.5" width="70" height="20" as="geometry" />
        </mxCell>
        <mxCell id="QmDL1ngPozNIfJA5Vx8l-160" value="服务" style="text;strokeColor=none;fillColor=none;html=1;fontSize=14;fontStyle=1;verticalAlign=middle;align=center;" vertex="1" parent="1">
          <mxGeometry x="524.25" y="868.5" width="70" height="20" as="geometry" />
        </mxCell>
        <mxCell id="QmDL1ngPozNIfJA5Vx8l-161" value="&lt;ul style=&quot;font-size: 14px;&quot;&gt;&lt;li style=&quot;font-size: 14px;&quot;&gt;实时通信&lt;/li&gt;&lt;li style=&quot;font-size: 14px;&quot;&gt;流媒体&lt;/li&gt;&lt;/ul&gt;" style="text;strokeColor=none;fillColor=none;html=1;whiteSpace=wrap;verticalAlign=middle;overflow=hidden;fontStyle=1;fontSize=14;" vertex="1" parent="1">
          <mxGeometry x="627.5" y="816" width="160" height="80" as="geometry" />
        </mxCell>
        <mxCell id="QmDL1ngPozNIfJA5Vx8l-168" value="" style="image;aspect=fixed;html=1;points=[];align=center;fontSize=12;image=img/lib/azure2/analytics/Stream_Analytics_Jobs.svg;" vertex="1" parent="1">
          <mxGeometry x="675" y="781" width="46.9" height="40" as="geometry" />
        </mxCell>
        <mxCell id="QmDL1ngPozNIfJA5Vx8l-170" value="Request" style="text;html=1;align=center;verticalAlign=middle;whiteSpace=wrap;rounded=0;fontStyle=1" vertex="1" parent="1">
          <mxGeometry x="358.75" y="793" width="106" height="30" as="geometry" />
        </mxCell>
        <mxCell id="QmDL1ngPozNIfJA5Vx8l-171" style="edgeStyle=orthogonalEdgeStyle;rounded=0;orthogonalLoop=1;jettySize=auto;html=1;exitX=1;exitY=0.25;exitDx=0;exitDy=0;fillColor=#bac8d3;strokeColor=#23445d;strokeWidth=3;flowAnimation=1;" edge="1" parent="1">
          <mxGeometry relative="1" as="geometry">
            <mxPoint x="539" y="850" as="sourcePoint" />
            <mxPoint x="311" y="850" as="targetPoint" />
            <Array as="points">
              <mxPoint x="479" y="850" />
              <mxPoint x="479" y="850" />
            </Array>
          </mxGeometry>
        </mxCell>
        <mxCell id="QmDL1ngPozNIfJA5Vx8l-172" value="Response" style="text;html=1;align=center;verticalAlign=middle;whiteSpace=wrap;rounded=0;fontStyle=1" vertex="1" parent="1">
          <mxGeometry x="364.75" y="821" width="106" height="30" as="geometry" />
        </mxCell>
        <mxCell id="QmDL1ngPozNIfJA5Vx8l-173" value="" style="childLayout=tableLayout;recursiveResize=0;shadow=0;fillColor=#fad7ac;strokeColor=#b46504;strokeWidth=3;rounded=1;glass=0;" vertex="1" parent="1">
          <mxGeometry x="40.25" y="903" width="759.75" height="120" as="geometry" />
        </mxCell>
        <mxCell id="QmDL1ngPozNIfJA5Vx8l-174" value="" style="shape=tableRow;horizontal=0;startSize=0;swimlaneHead=0;swimlaneBody=0;top=0;left=0;bottom=0;right=0;dropTarget=0;collapsible=0;recursiveResize=0;expand=0;fontStyle=0;fillColor=none;strokeColor=inherit;" vertex="1" parent="QmDL1ngPozNIfJA5Vx8l-173">
          <mxGeometry width="759.75" height="120" as="geometry" />
        </mxCell>
        <mxCell id="QmDL1ngPozNIfJA5Vx8l-175" value="&lt;span style=&quot;font-size: 20px;&quot;&gt;&lt;b&gt;Web Socket&lt;/b&gt;&lt;/span&gt;&lt;br&gt;&lt;div style=&quot;font-size: 14px;&quot;&gt;&lt;br&gt;&lt;/div&gt;" style="connectable=0;recursiveResize=0;strokeColor=inherit;fillColor=none;align=center;whiteSpace=wrap;html=1;" vertex="1" parent="QmDL1ngPozNIfJA5Vx8l-174">
          <mxGeometry width="200" height="120" as="geometry">
            <mxRectangle width="200" height="120" as="alternateBounds" />
          </mxGeometry>
        </mxCell>
        <mxCell id="QmDL1ngPozNIfJA5Vx8l-176" value="" style="connectable=0;recursiveResize=0;strokeColor=#24445d;fillColor=none;align=center;whiteSpace=wrap;html=1;strokeWidth=1;" vertex="1" parent="QmDL1ngPozNIfJA5Vx8l-174">
          <mxGeometry x="200" width="360" height="120" as="geometry">
            <mxRectangle width="360" height="120" as="alternateBounds" />
          </mxGeometry>
        </mxCell>
        <mxCell id="QmDL1ngPozNIfJA5Vx8l-177" value="" style="connectable=0;recursiveResize=0;strokeColor=inherit;fillColor=none;align=center;whiteSpace=wrap;html=1;" vertex="1" parent="QmDL1ngPozNIfJA5Vx8l-174">
          <mxGeometry x="560" width="200" height="120" as="geometry">
            <mxRectangle width="200" height="120" as="alternateBounds" />
          </mxGeometry>
        </mxCell>
        <mxCell id="QmDL1ngPozNIfJA5Vx8l-178" value="" style="image;perimeter=ellipsePerimeter;html=1;align=center;shadow=0;dashed=0;spacingTop=3;image=img/lib/active_directory/generic_server.svg;" vertex="1" parent="1">
          <mxGeometry x="530.25" y="930.5" width="58.5" height="65" as="geometry" />
        </mxCell>
        <mxCell id="QmDL1ngPozNIfJA5Vx8l-179" style="edgeStyle=orthogonalEdgeStyle;rounded=0;orthogonalLoop=1;jettySize=auto;html=1;exitX=1;exitY=0.25;exitDx=0;exitDy=0;fillColor=#fad7ac;strokeColor=#b46504;strokeWidth=3;flowAnimation=1;startArrow=classicThin;startFill=1;" edge="1" parent="1" source="QmDL1ngPozNIfJA5Vx8l-180" target="QmDL1ngPozNIfJA5Vx8l-178">
          <mxGeometry relative="1" as="geometry">
            <Array as="points">
              <mxPoint x="473.25" y="949" />
              <mxPoint x="473.25" y="949" />
            </Array>
          </mxGeometry>
        </mxCell>
        <mxCell id="QmDL1ngPozNIfJA5Vx8l-180" value="" style="image;aspect=fixed;perimeter=ellipsePerimeter;html=1;align=center;shadow=0;dashed=0;spacingTop=3;image=img/lib/active_directory/laptop_client.svg;" vertex="1" parent="1">
          <mxGeometry x="250.25" y="930.5" width="58.5" height="65" as="geometry" />
        </mxCell>
        <mxCell id="QmDL1ngPozNIfJA5Vx8l-181" value="&lt;font style=&quot;font-size: 15px;&quot;&gt;客户端&lt;/font&gt;" style="text;strokeColor=none;fillColor=none;html=1;fontSize=15;fontStyle=1;verticalAlign=middle;align=center;" vertex="1" parent="1">
          <mxGeometry x="238.75" y="995.5" width="70" height="20" as="geometry" />
        </mxCell>
        <mxCell id="QmDL1ngPozNIfJA5Vx8l-182" value="服务" style="text;strokeColor=none;fillColor=none;html=1;fontSize=14;fontStyle=1;verticalAlign=middle;align=center;" vertex="1" parent="1">
          <mxGeometry x="524.5" y="995.5" width="70" height="20" as="geometry" />
        </mxCell>
        <mxCell id="QmDL1ngPozNIfJA5Vx8l-183" value="&lt;ul style=&quot;font-size: 14px;&quot;&gt;&lt;li style=&quot;font-size: 14px;&quot;&gt;实时聊天&lt;/li&gt;&lt;/ul&gt;" style="text;strokeColor=none;fillColor=none;html=1;whiteSpace=wrap;verticalAlign=middle;overflow=hidden;fontStyle=1;fontSize=14;" vertex="1" parent="1">
          <mxGeometry x="627.75" y="943" width="160" height="80" as="geometry" />
        </mxCell>
        <mxCell id="QmDL1ngPozNIfJA5Vx8l-185" value="Http Upgrade" style="text;html=1;align=center;verticalAlign=middle;whiteSpace=wrap;rounded=0;fontStyle=1" vertex="1" parent="1">
          <mxGeometry x="359" y="920" width="106" height="30" as="geometry" />
        </mxCell>
        <mxCell id="QmDL1ngPozNIfJA5Vx8l-186" style="edgeStyle=orthogonalEdgeStyle;rounded=0;orthogonalLoop=1;jettySize=auto;html=1;exitX=1;exitY=0.25;exitDx=0;exitDy=0;fillColor=#fad7ac;strokeColor=#b46504;strokeWidth=3;flowAnimation=1;" edge="1" parent="1">
          <mxGeometry relative="1" as="geometry">
            <mxPoint x="539.25" y="977" as="sourcePoint" />
            <mxPoint x="311.25" y="977" as="targetPoint" />
            <Array as="points">
              <mxPoint x="479.25" y="977" />
              <mxPoint x="479.25" y="977" />
            </Array>
          </mxGeometry>
        </mxCell>
        <mxCell id="QmDL1ngPozNIfJA5Vx8l-187" value="Full Duplex" style="text;html=1;align=center;verticalAlign=middle;whiteSpace=wrap;rounded=0;fontStyle=1" vertex="1" parent="1">
          <mxGeometry x="365" y="948" width="106" height="30" as="geometry" />
        </mxCell>
        <mxCell id="QmDL1ngPozNIfJA5Vx8l-188" value="" style="html=1;verticalLabelPosition=bottom;align=center;labelBackgroundColor=#ffffff;verticalAlign=top;strokeWidth=2;strokeColor=#0080F0;shadow=0;dashed=0;shape=mxgraph.ios7.icons.chat;" vertex="1" parent="1">
          <mxGeometry x="677" y="916" width="46" height="30" as="geometry" />
        </mxCell>
      </root>
    </mxGraphModel>
  </diagram>
</mxfile>
